<?xml version="1.0" encoding="UTF-8" standalone="no"?>
<!DOCTYPE svg PUBLIC "-//W3C//DTD SVG 1.1//EN"
 "http://www.w3.org/Graphics/SVG/1.1/DTD/svg11.dtd">
<!-- Generated by graphviz version 2.43.0 (0)
 -->
<!-- Title: SSANet_Task2 Pages: 1 -->
<svg width="1046pt" height="250pt"
 viewBox="0.00 0.00 1046.00 250.00" xmlns="http://www.w3.org/2000/svg" xmlns:xlink="http://www.w3.org/1999/xlink">
<g id="graph0" class="graph" transform="scale(1 1) rotate(0) translate(4 246)">
<title>SSANet_Task2</title>
<polygon fill="white" stroke="transparent" points="-4,4 -4,-246 1042,-246 1042,4 -4,4"/>
<g id="clust1" class="cluster">
<title>cluster_mapper</title>
<path fill="none" stroke="#cbd5e1" d="M226.5,-101C226.5,-101 838,-101 838,-101 844,-101 850,-107 850,-113 850,-113 850,-222 850,-222 850,-228 844,-234 838,-234 838,-234 226.5,-234 226.5,-234 220.5,-234 214.5,-228 214.5,-222 214.5,-222 214.5,-113 214.5,-113 214.5,-107 220.5,-101 226.5,-101"/>
<text text-anchor="middle" x="532.25" y="-218.8" font-family="Times,serif" font-size="14.00">BandMapper (可变波段适配)</text>
</g>
<g id="clust2" class="cluster">
<title>cluster_core</title>
<path fill="none" stroke="#cbd5e1" d="M173,-8C173,-8 445,-8 445,-8 451,-8 457,-14 457,-20 457,-20 457,-73 457,-73 457,-79 451,-85 445,-85 445,-85 173,-85 173,-85 167,-85 161,-79 161,-73 161,-73 161,-20 161,-20 161,-14 167,-8 173,-8"/>
<text text-anchor="middle" x="309" y="-69.8" font-family="Times,serif" font-size="14.00">SSANet core (Task1: CTM/MMF 已替换)</text>
</g>
<!-- X -->
<g id="node1" class="node">
<title>X</title>
<path fill="#f8fafc" stroke="#334155" d="M121,-179C121,-179 12,-179 12,-179 6,-179 0,-173 0,-167 0,-167 0,-153 0,-153 0,-147 6,-141 12,-141 12,-141 121,-141 121,-141 127,-141 133,-147 133,-153 133,-153 133,-167 133,-167 133,-173 127,-179 121,-179"/>
<text text-anchor="middle" x="66.5" y="-163.8" font-family="Arial" font-size="14.00">输入 X</text>
<text text-anchor="middle" x="66.5" y="-148.8" font-family="Arial" font-size="14.00">[B, C(可变), 128, 4]</text>
</g>
<!-- m1 -->
<g id="node5" class="node">
<title>m1</title>
<path fill="#f8fafc" stroke="#334155" d="M383.5,-203C383.5,-203 234.5,-203 234.5,-203 228.5,-203 222.5,-197 222.5,-191 222.5,-191 222.5,-177 222.5,-177 222.5,-171 228.5,-165 234.5,-165 234.5,-165 383.5,-165 383.5,-165 389.5,-165 395.5,-171 395.5,-177 395.5,-177 395.5,-191 395.5,-191 395.5,-197 389.5,-203 383.5,-203"/>
<text text-anchor="middle" x="309" y="-187.8" font-family="Arial" font-size="14.00">Band Embedding</text>
<text text-anchor="middle" x="309" y="-172.8" font-family="Arial" font-size="14.00">(sinusoidal channel index)</text>
</g>
<!-- X&#45;&gt;m1 -->
<g id="edge4" class="edge">
<title>X&#45;&gt;m1</title>
<path fill="none" stroke="#475569" d="M133.22,-166.56C158.28,-169.06 187.35,-171.96 214.51,-174.67"/>
<polygon fill="#475569" stroke="#475569" points="214.25,-177.46 222.49,-175.47 214.81,-171.89 214.25,-177.46"/>
</g>
<!-- m3 -->
<g id="node7" class="node">
<title>m3</title>
<path fill="#f8fafc" stroke="#334155" d="M830,-203C830,-203 693,-203 693,-203 687,-203 681,-197 681,-191 681,-191 681,-177 681,-177 681,-171 687,-165 693,-165 693,-165 830,-165 830,-165 836,-165 842,-171 842,-177 842,-177 842,-191 842,-191 842,-197 836,-203 830,-203"/>
<text text-anchor="middle" x="761.5" y="-187.8" font-family="Arial" font-size="14.00">Map: C &#45;&gt; bands</text>
<text text-anchor="middle" x="761.5" y="-172.8" font-family="Arial" font-size="14.00">(matmul over band dim)</text>
</g>
<!-- X&#45;&gt;m3 -->
<g id="edge5" class="edge">
<title>X&#45;&gt;m3</title>
<path fill="none" stroke="#475569" d="M133.19,-154.2C240.66,-145.91 460.57,-133.96 645,-156 658.36,-157.6 672.4,-160.2 685.92,-163.18"/>
<polygon fill="#475569" stroke="#475569" points="685.39,-165.93 693.81,-164.98 686.63,-160.47 685.39,-165.93"/>
</g>
<!-- Xb -->
<g id="node2" class="node">
<title>Xb</title>
<path fill="#f8fafc" stroke="#334155" d="M1026,-203C1026,-203 890,-203 890,-203 884,-203 878,-197 878,-191 878,-191 878,-177 878,-177 878,-171 884,-165 890,-165 890,-165 1026,-165 1026,-165 1032,-165 1038,-171 1038,-177 1038,-177 1038,-191 1038,-191 1038,-197 1032,-203 1026,-203"/>
<text text-anchor="middle" x="958" y="-187.8" font-family="Arial" font-size="14.00">X_base</text>
<text text-anchor="middle" x="958" y="-172.8" font-family="Arial" font-size="14.00">[B, bands(固定), 128, 4]</text>
</g>
<!-- core -->
<g id="node9" class="node">
<title>core</title>
<path fill="#f8fafc" stroke="#334155" d="M423,-54C423,-54 195,-54 195,-54 189,-54 183,-48 183,-42 183,-42 183,-28 183,-28 183,-22 189,-16 195,-16 195,-16 423,-16 423,-16 429,-16 435,-22 435,-28 435,-28 435,-42 435,-42 435,-48 429,-54 423,-54"/>
<text text-anchor="middle" x="309" y="-38.8" font-family="Arial" font-size="14.00">Encoder + (optional AWGN) + Decoder</text>
<text text-anchor="middle" x="309" y="-23.8" font-family="Arial" font-size="14.00">(内部 bands 固定)</text>
</g>
<!-- Xb&#45;&gt;core -->
<g id="edge7" class="edge">
<title>Xb&#45;&gt;core</title>
<path fill="none" stroke="#475569" d="M890.1,-164.83C885.76,-162.24 881.67,-159.31 878,-156 856.45,-136.55 872.46,-115.38 850,-97 731.04,0.34 544.85,-1.09 425.14,-15.01"/>
<polygon fill="#475569" stroke="#475569" points="424.61,-12.25 417,-15.98 425.28,-17.81 424.61,-12.25"/>
</g>
<!-- XH_base -->
<g id="node3" class="node">
<title>XH_base</title>
<path fill="#f8fafc" stroke="#334155" d="M633,-93C633,-93 497,-93 497,-93 491,-93 485,-87 485,-81 485,-81 485,-67 485,-67 485,-61 491,-55 497,-55 497,-55 633,-55 633,-55 639,-55 645,-61 645,-67 645,-67 645,-81 645,-81 645,-87 639,-93 633,-93"/>
<text text-anchor="middle" x="565" y="-77.8" font-family="Arial" font-size="14.00">u005E X_base</text>
<text text-anchor="middle" x="565" y="-62.8" font-family="Arial" font-size="14.00">[B, bands(固定), 128, 4]</text>
</g>
<!-- m4 -->
<g id="node8" class="node">
<title>m4</title>
<path fill="#f8fafc" stroke="#334155" d="M830,-147C830,-147 693,-147 693,-147 687,-147 681,-141 681,-135 681,-135 681,-121 681,-121 681,-115 687,-109 693,-109 693,-109 830,-109 830,-109 836,-109 842,-115 842,-121 842,-121 842,-135 842,-135 842,-141 836,-147 830,-147"/>
<text text-anchor="middle" x="761.5" y="-131.8" font-family="Arial" font-size="14.00">Map back: bands &#45;&gt; C</text>
<text text-anchor="middle" x="761.5" y="-116.8" font-family="Arial" font-size="14.00">(matmul over band dim)</text>
</g>
<!-- XH_base&#45;&gt;m4 -->
<g id="edge9" class="edge">
<title>XH_base&#45;&gt;m4</title>
<path fill="none" stroke="#475569" d="M634.57,-93.04C650.55,-97.47 667.66,-102.23 683.96,-106.75"/>
<polygon fill="#475569" stroke="#475569" points="683.43,-109.51 691.89,-108.95 684.93,-104.11 683.43,-109.51"/>
</g>
<!-- XH -->
<g id="node4" class="node">
<title>XH</title>
<path fill="#f8fafc" stroke="#334155" d="M1012.5,-147C1012.5,-147 903.5,-147 903.5,-147 897.5,-147 891.5,-141 891.5,-135 891.5,-135 891.5,-121 891.5,-121 891.5,-115 897.5,-109 903.5,-109 903.5,-109 1012.5,-109 1012.5,-109 1018.5,-109 1024.5,-115 1024.5,-121 1024.5,-121 1024.5,-135 1024.5,-135 1024.5,-141 1018.5,-147 1012.5,-147"/>
<text text-anchor="middle" x="958" y="-131.8" font-family="Arial" font-size="14.00">输出 u005E X</text>
<text text-anchor="middle" x="958" y="-116.8" font-family="Arial" font-size="14.00">[B, C(可变), 128, 4]</text>
</g>
<!-- m2 -->
<g id="node6" class="node">
<title>m2</title>
<path fill="#f8fafc" stroke="#334155" d="M617,-203C617,-203 513,-203 513,-203 507,-203 501,-197 501,-191 501,-191 501,-177 501,-177 501,-171 507,-165 513,-165 513,-165 617,-165 617,-165 623,-165 629,-171 629,-177 629,-177 629,-191 629,-191 629,-197 623,-203 617,-203"/>
<text text-anchor="middle" x="565" y="-187.8" font-family="Arial" font-size="14.00">Cross&#45;attn weights</text>
<text text-anchor="middle" x="565" y="-172.8" font-family="Arial" font-size="14.00">Q (learnable) x E</text>
</g>
<!-- m1&#45;&gt;m2 -->
<g id="edge1" class="edge">
<title>m1&#45;&gt;m2</title>
<path fill="none" stroke="#475569" d="M395.64,-184C427.1,-184 462.37,-184 492.46,-184"/>
<polygon fill="#475569" stroke="#475569" points="492.8,-186.8 500.8,-184 492.8,-181.2 492.8,-186.8"/>
</g>
<!-- m2&#45;&gt;m3 -->
<g id="edge2" class="edge">
<title>m2&#45;&gt;m3</title>
<path fill="none" stroke="#475569" d="M629.15,-184C643.09,-184 658.11,-184 672.83,-184"/>
<polygon fill="#475569" stroke="#475569" points="672.97,-186.8 680.97,-184 672.97,-181.2 672.97,-186.8"/>
</g>
<!-- m2&#45;&gt;m4 -->
<g id="edge3" class="edge">
<title>m2&#45;&gt;m4</title>
<path fill="none" stroke="#475569" d="M629.15,-165.82C647.48,-160.54 667.66,-154.73 686.58,-149.28"/>
<polygon fill="#475569" stroke="#475569" points="687.41,-151.96 694.32,-147.05 685.86,-146.58 687.41,-151.96"/>
</g>
<!-- m3&#45;&gt;Xb -->
<g id="edge6" class="edge">
<title>m3&#45;&gt;Xb</title>
<path fill="none" stroke="#475569" d="M842.17,-184C851.26,-184 860.56,-184 869.74,-184"/>
<polygon fill="#475569" stroke="#475569" points="869.77,-186.8 877.77,-184 869.77,-181.2 869.77,-186.8"/>
</g>
<!-- m4&#45;&gt;XH -->
<g id="edge10" class="edge">
<title>m4&#45;&gt;XH</title>
<path fill="none" stroke="#475569" d="M842.17,-128C855.72,-128 869.75,-128 883.14,-128"/>
<polygon fill="#475569" stroke="#475569" points="883.39,-130.8 891.39,-128 883.39,-125.2 883.39,-130.8"/>
</g>
<!-- core&#45;&gt;XH_base -->
<g id="edge8" class="edge">
<title>core&#45;&gt;XH_base</title>
<path fill="none" stroke="#475569" d="M434.02,-54.04C448.45,-56.26 462.92,-58.48 476.7,-60.6"/>
<polygon fill="#475569" stroke="#475569" points="476.39,-63.38 484.73,-61.83 477.24,-57.85 476.39,-63.38"/>
</g>
</g>
</svg>
