<?xml version="1.0" encoding="UTF-8" standalone="no"?>
<!DOCTYPE svg PUBLIC "-//W3C//DTD SVG 1.1//EN"
 "http://www.w3.org/Graphics/SVG/1.1/DTD/svg11.dtd">
<!-- Generated by graphviz version 2.43.0 (0)
 -->
<!-- Title: SSANet_Task1 Pages: 1 -->
<svg width="2621pt" height="117pt"
 viewBox="0.00 0.00 2621.00 117.00" xmlns="http://www.w3.org/2000/svg" xmlns:xlink="http://www.w3.org/1999/xlink">
<g id="graph0" class="graph" transform="scale(1 1) rotate(0) translate(4 113)">
<title>SSANet_Task1</title>
<polygon fill="white" stroke="transparent" points="-4,4 -4,-113 2617,-113 2617,4 -4,4"/>
<g id="clust1" class="cluster">
<title>cluster_encoder</title>
<path fill="none" stroke="#cbd5e1" d="M162,-16C162,-16 1108,-16 1108,-16 1114,-16 1120,-22 1120,-28 1120,-28 1120,-81 1120,-81 1120,-87 1114,-93 1108,-93 1108,-93 162,-93 162,-93 156,-93 150,-87 150,-81 150,-81 150,-28 150,-28 150,-22 156,-16 162,-16"/>
<text text-anchor="middle" x="635" y="-77.8" font-family="Times,serif" font-size="14.00">LEncoder (Encoder)</text>
</g>
<g id="clust2" class="cluster">
<title>cluster_channel</title>
<path fill="none" stroke="#cbd5e1" d="M1339,-17C1339,-17 1463,-17 1463,-17 1469,-17 1475,-23 1475,-29 1475,-29 1475,-80 1475,-80 1475,-86 1469,-92 1463,-92 1463,-92 1339,-92 1339,-92 1333,-92 1327,-86 1327,-80 1327,-80 1327,-29 1327,-29 1327,-23 1333,-17 1339,-17"/>
<text text-anchor="middle" x="1401" y="-76.8" font-family="Times,serif" font-size="14.00">Channel (optional)</text>
</g>
<g id="clust3" class="cluster">
<title>cluster_decoder</title>
<path fill="none" stroke="#cbd5e1" d="M1507,-8C1507,-8 2451,-8 2451,-8 2457,-8 2463,-14 2463,-20 2463,-20 2463,-89 2463,-89 2463,-95 2457,-101 2451,-101 2451,-101 1507,-101 1507,-101 1501,-101 1495,-95 1495,-89 1495,-89 1495,-20 1495,-20 1495,-14 1501,-8 1507,-8"/>
<text text-anchor="middle" x="1979" y="-85.8" font-family="Times,serif" font-size="14.00">SSDecoder (Decoder)</text>
</g>
<!-- X -->
<g id="node1" class="node">
<title>X</title>
<path fill="#f8fafc" stroke="#334155" d="M110,-62C110,-62 12,-62 12,-62 6,-62 0,-56 0,-50 0,-50 0,-36 0,-36 0,-30 6,-24 12,-24 12,-24 110,-24 110,-24 116,-24 122,-30 122,-36 122,-36 122,-50 122,-50 122,-56 116,-62 110,-62"/>
<text text-anchor="middle" x="61" y="-46.8" font-family="Arial" font-size="14.00">输入 X</text>
<text text-anchor="middle" x="61" y="-31.8" font-family="Arial" font-size="14.00">[B, bands, 128, 4]</text>
</g>
<!-- e1 -->
<g id="node4" class="node">
<title>e1</title>
<path fill="#f8fafc" stroke="#334155" d="M220,-62C220,-62 170,-62 170,-62 164,-62 158,-56 158,-50 158,-50 158,-36 158,-36 158,-30 164,-24 170,-24 170,-24 220,-24 220,-24 226,-24 232,-30 232,-36 232,-36 232,-50 232,-50 232,-56 226,-62 220,-62"/>
<text text-anchor="middle" x="195" y="-46.8" font-family="Arial" font-size="14.00">Conv 3x2</text>
<text text-anchor="middle" x="195" y="-31.8" font-family="Arial" font-size="14.00">stride 2</text>
</g>
<!-- X&#45;&gt;e1 -->
<g id="edge11" class="edge">
<title>X&#45;&gt;e1</title>
<path fill="none" stroke="#475569" d="M122.21,-43C131.38,-43 140.7,-43 149.46,-43"/>
<polygon fill="#475569" stroke="#475569" points="149.66,-45.8 157.66,-43 149.66,-40.2 149.66,-45.8"/>
</g>
<!-- Y -->
<g id="node2" class="node">
<title>Y</title>
<path fill="#f8fafc" stroke="#334155" d="M1287,-62C1287,-62 1160,-62 1160,-62 1154,-62 1148,-56 1148,-50 1148,-50 1148,-36 1148,-36 1148,-30 1154,-24 1160,-24 1160,-24 1287,-24 1287,-24 1293,-24 1299,-30 1299,-36 1299,-36 1299,-50 1299,-50 1299,-56 1293,-62 1287,-62"/>
<text text-anchor="middle" x="1223.5" y="-46.8" font-family="Arial" font-size="14.00">压缩表征 Y</text>
<text text-anchor="middle" x="1223.5" y="-31.8" font-family="Arial" font-size="14.00">[B, last_ch, 32/64, 1/2]</text>
</g>
<!-- awgn -->
<g id="node10" class="node">
<title>awgn</title>
<path fill="#f8fafc" stroke="#334155" d="M1449,-61C1449,-61 1353,-61 1353,-61 1347,-61 1341,-55 1341,-49 1341,-49 1341,-37 1341,-37 1341,-31 1347,-25 1353,-25 1353,-25 1449,-25 1449,-25 1455,-25 1461,-31 1461,-37 1461,-37 1461,-49 1461,-49 1461,-55 1455,-61 1449,-61"/>
<text text-anchor="middle" x="1401" y="-39.3" font-family="Arial" font-size="14.00">AWGN (optional)</text>
</g>
<!-- Y&#45;&gt;awgn -->
<g id="edge13" class="edge">
<title>Y&#45;&gt;awgn</title>
<path fill="none" stroke="#475569" d="M1299.18,-43C1310.26,-43 1321.62,-43 1332.54,-43"/>
<polygon fill="#475569" stroke="#475569" points="1332.79,-45.8 1340.79,-43 1332.79,-40.2 1332.79,-45.8"/>
</g>
<!-- XH -->
<g id="node3" class="node">
<title>XH</title>
<path fill="#f8fafc" stroke="#334155" d="M2601,-62C2601,-62 2503,-62 2503,-62 2497,-62 2491,-56 2491,-50 2491,-50 2491,-36 2491,-36 2491,-30 2497,-24 2503,-24 2503,-24 2601,-24 2601,-24 2607,-24 2613,-30 2613,-36 2613,-36 2613,-50 2613,-50 2613,-56 2607,-62 2601,-62"/>
<text text-anchor="middle" x="2552" y="-46.8" font-family="Arial" font-size="14.00">重建 u005E X</text>
<text text-anchor="middle" x="2552" y="-31.8" font-family="Arial" font-size="14.00">[B, bands, 128, 4]</text>
</g>
<!-- e2 -->
<g id="node5" class="node">
<title>e2</title>
<path fill="#f8fafc" stroke="#334155" d="M416,-62C416,-62 280,-62 280,-62 274,-62 268,-56 268,-50 268,-50 268,-36 268,-36 268,-30 274,-24 280,-24 280,-24 416,-24 416,-24 422,-24 428,-30 428,-36 428,-36 428,-50 428,-50 428,-56 422,-62 416,-62"/>
<text text-anchor="middle" x="348" y="-46.8" font-family="Arial" font-size="14.00">CTM/MMF&#45;1</text>
<text text-anchor="middle" x="348" y="-31.8" font-family="Arial" font-size="14.00">(split: CNN + SpectralT)</text>
</g>
<!-- e1&#45;&gt;e2 -->
<g id="edge1" class="edge">
<title>e1&#45;&gt;e2</title>
<path fill="none" stroke="#475569" d="M232.17,-43C240.62,-43 249.99,-43 259.61,-43"/>
<polygon fill="#475569" stroke="#475569" points="259.75,-45.8 267.75,-43 259.75,-40.2 259.75,-45.8"/>
</g>
<!-- e3 -->
<g id="node6" class="node">
<title>e3</title>
<path fill="#f8fafc" stroke="#334155" d="M526,-61C526,-61 476,-61 476,-61 470,-61 464,-55 464,-49 464,-49 464,-37 464,-37 464,-31 470,-25 476,-25 476,-25 526,-25 526,-25 532,-25 538,-31 538,-37 538,-37 538,-49 538,-49 538,-55 532,-61 526,-61"/>
<text text-anchor="middle" x="501" y="-39.3" font-family="Arial" font-size="14.00">Conv 3x1</text>
</g>
<!-- e2&#45;&gt;e3 -->
<g id="edge2" class="edge">
<title>e2&#45;&gt;e3</title>
<path fill="none" stroke="#475569" d="M428.04,-43C437.56,-43 447,-43 455.76,-43"/>
<polygon fill="#475569" stroke="#475569" points="455.93,-45.8 463.93,-43 455.93,-40.2 455.93,-45.8"/>
</g>
<!-- e4 -->
<g id="node7" class="node">
<title>e4</title>
<path fill="#f8fafc" stroke="#334155" d="M722,-62C722,-62 586,-62 586,-62 580,-62 574,-56 574,-50 574,-50 574,-36 574,-36 574,-30 580,-24 586,-24 586,-24 722,-24 722,-24 728,-24 734,-30 734,-36 734,-36 734,-50 734,-50 734,-56 728,-62 722,-62"/>
<text text-anchor="middle" x="654" y="-46.8" font-family="Arial" font-size="14.00">CTM/MMF&#45;2</text>
<text text-anchor="middle" x="654" y="-31.8" font-family="Arial" font-size="14.00">(split: CNN + SpectralT)</text>
</g>
<!-- e3&#45;&gt;e4 -->
<g id="edge3" class="edge">
<title>e3&#45;&gt;e4</title>
<path fill="none" stroke="#475569" d="M538.17,-43C546.62,-43 555.99,-43 565.61,-43"/>
<polygon fill="#475569" stroke="#475569" points="565.75,-45.8 573.75,-43 565.75,-40.2 565.75,-45.8"/>
</g>
<!-- e5 -->
<g id="node8" class="node">
<title>e5</title>
<path fill="#f8fafc" stroke="#334155" d="M904,-62C904,-62 782,-62 782,-62 776,-62 770,-56 770,-50 770,-50 770,-36 770,-36 770,-30 776,-24 782,-24 782,-24 904,-24 904,-24 910,-24 916,-30 916,-36 916,-36 916,-50 916,-50 916,-56 910,-62 904,-62"/>
<text text-anchor="middle" x="843" y="-46.8" font-family="Arial" font-size="14.00">Conv 3xk</text>
<text text-anchor="middle" x="843" y="-31.8" font-family="Arial" font-size="14.00">(compress to last_ch)</text>
</g>
<!-- e4&#45;&gt;e5 -->
<g id="edge4" class="edge">
<title>e4&#45;&gt;e5</title>
<path fill="none" stroke="#475569" d="M734.03,-43C743.21,-43 752.57,-43 761.76,-43"/>
<polygon fill="#475569" stroke="#475569" points="761.79,-45.8 769.79,-43 761.79,-40.2 761.79,-45.8"/>
</g>
<!-- e6 -->
<g id="node9" class="node">
<title>e6</title>
<path fill="#f8fafc" stroke="#334155" d="M1100,-62C1100,-62 964,-62 964,-62 958,-62 952,-56 952,-50 952,-50 952,-36 952,-36 952,-30 958,-24 964,-24 964,-24 1100,-24 1100,-24 1106,-24 1112,-30 1112,-36 1112,-36 1112,-50 1112,-50 1112,-56 1106,-62 1100,-62"/>
<text text-anchor="middle" x="1032" y="-46.8" font-family="Arial" font-size="14.00">CTM/MMF&#45;3</text>
<text text-anchor="middle" x="1032" y="-31.8" font-family="Arial" font-size="14.00">(split: CNN + SpectralT)</text>
</g>
<!-- e5&#45;&gt;e6 -->
<g id="edge5" class="edge">
<title>e5&#45;&gt;e6</title>
<path fill="none" stroke="#475569" d="M916.03,-43C925.1,-43 934.46,-43 943.73,-43"/>
<polygon fill="#475569" stroke="#475569" points="943.86,-45.8 951.86,-43 943.86,-40.2 943.86,-45.8"/>
</g>
<!-- e6&#45;&gt;Y -->
<g id="edge12" class="edge">
<title>e6&#45;&gt;Y</title>
<path fill="none" stroke="#475569" d="M1112.27,-43C1121.27,-43 1130.47,-43 1139.53,-43"/>
<polygon fill="#475569" stroke="#475569" points="1139.79,-45.8 1147.79,-43 1139.79,-40.2 1139.79,-45.8"/>
</g>
<!-- d1 -->
<g id="node11" class="node">
<title>d1</title>
<path fill="#f8fafc" stroke="#334155" d="M1577,-62C1577,-62 1515,-62 1515,-62 1509,-62 1503,-56 1503,-50 1503,-50 1503,-36 1503,-36 1503,-30 1509,-24 1515,-24 1515,-24 1577,-24 1577,-24 1583,-24 1589,-30 1589,-36 1589,-36 1589,-50 1589,-50 1589,-56 1583,-62 1577,-62"/>
<text text-anchor="middle" x="1546" y="-46.8" font-family="Arial" font-size="14.00">Conv_first</text>
<text text-anchor="middle" x="1546" y="-31.8" font-family="Arial" font-size="14.00">(in_nc&#45;&gt;64)</text>
</g>
<!-- awgn&#45;&gt;d1 -->
<g id="edge14" class="edge">
<title>awgn&#45;&gt;d1</title>
<path fill="none" stroke="#475569" d="M1461.4,-43C1472.53,-43 1484.06,-43 1494.88,-43"/>
<polygon fill="#475569" stroke="#475569" points="1494.99,-45.8 1502.99,-43 1494.99,-40.2 1494.99,-45.8"/>
</g>
<!-- d2 -->
<g id="node12" class="node">
<title>d2</title>
<path fill="#f8fafc" stroke="#334155" d="M1773,-69.5C1773,-69.5 1637,-69.5 1637,-69.5 1631,-69.5 1625,-63.5 1625,-57.5 1625,-57.5 1625,-28.5 1625,-28.5 1625,-22.5 1631,-16.5 1637,-16.5 1637,-16.5 1773,-16.5 1773,-16.5 1779,-16.5 1785,-22.5 1785,-28.5 1785,-28.5 1785,-57.5 1785,-57.5 1785,-63.5 1779,-69.5 1773,-69.5"/>
<text text-anchor="middle" x="1705" y="-54.3" font-family="Arial" font-size="14.00">SSFE trunk x16</text>
<text text-anchor="middle" x="1705" y="-39.3" font-family="Arial" font-size="14.00">[MRDFx3 + CTM/MMF]</text>
<text text-anchor="middle" x="1705" y="-24.3" font-family="Arial" font-size="14.00">+ gate</text>
</g>
<!-- d1&#45;&gt;d2 -->
<g id="edge6" class="edge">
<title>d1&#45;&gt;d2</title>
<path fill="none" stroke="#475569" d="M1589.07,-43C1597.73,-43 1607.15,-43 1616.74,-43"/>
<polygon fill="#475569" stroke="#475569" points="1616.83,-45.8 1624.83,-43 1616.83,-40.2 1616.83,-45.8"/>
</g>
<!-- d3 -->
<g id="node13" class="node">
<title>d3</title>
<path fill="#f8fafc" stroke="#334155" d="M1934,-61C1934,-61 1833,-61 1833,-61 1827,-61 1821,-55 1821,-49 1821,-49 1821,-37 1821,-37 1821,-31 1827,-25 1833,-25 1833,-25 1934,-25 1934,-25 1940,-25 1946,-31 1946,-37 1946,-37 1946,-49 1946,-49 1946,-55 1940,-61 1934,-61"/>
<text text-anchor="middle" x="1883.5" y="-39.3" font-family="Arial" font-size="14.00">Trunk conv + gate</text>
</g>
<!-- d2&#45;&gt;d3 -->
<g id="edge7" class="edge">
<title>d2&#45;&gt;d3</title>
<path fill="none" stroke="#475569" d="M1785.22,-43C1794.34,-43 1803.59,-43 1812.57,-43"/>
<polygon fill="#475569" stroke="#475569" points="1812.74,-45.8 1820.74,-43 1812.74,-40.2 1812.74,-45.8"/>
</g>
<!-- d4 -->
<g id="node14" class="node">
<title>d4</title>
<path fill="#f8fafc" stroke="#334155" d="M2085,-62C2085,-62 1994,-62 1994,-62 1988,-62 1982,-56 1982,-50 1982,-50 1982,-36 1982,-36 1982,-30 1988,-24 1994,-24 1994,-24 2085,-24 2085,-24 2091,-24 2097,-30 2097,-36 2097,-36 2097,-50 2097,-50 2097,-56 2091,-62 2085,-62"/>
<text text-anchor="middle" x="2039.5" y="-46.8" font-family="Arial" font-size="14.00">Upsample x2</text>
<text text-anchor="middle" x="2039.5" y="-31.8" font-family="Arial" font-size="14.00">(nearest + conv)</text>
</g>
<!-- d3&#45;&gt;d4 -->
<g id="edge8" class="edge">
<title>d3&#45;&gt;d4</title>
<path fill="none" stroke="#475569" d="M1946.25,-43C1955.22,-43 1964.48,-43 1973.51,-43"/>
<polygon fill="#475569" stroke="#475569" points="1973.72,-45.8 1981.72,-43 1973.72,-40.2 1973.72,-45.8"/>
</g>
<!-- d5 -->
<g id="node15" class="node">
<title>d5</title>
<path fill="#f8fafc" stroke="#334155" d="M2267,-61C2267,-61 2145,-61 2145,-61 2139,-61 2133,-55 2133,-49 2133,-49 2133,-37 2133,-37 2133,-31 2139,-25 2145,-25 2145,-25 2267,-25 2267,-25 2273,-25 2279,-31 2279,-37 2279,-37 2279,-49 2279,-49 2279,-55 2273,-61 2267,-61"/>
<text text-anchor="middle" x="2206" y="-39.3" font-family="Arial" font-size="14.00">Upsample x2 (if cr&lt;5)</text>
</g>
<!-- d4&#45;&gt;d5 -->
<g id="edge9" class="edge">
<title>d4&#45;&gt;d5</title>
<path fill="none" stroke="#475569" d="M2097.11,-43C2106.02,-43 2115.38,-43 2124.71,-43"/>
<polygon fill="#475569" stroke="#475569" points="2124.89,-45.8 2132.89,-43 2124.89,-40.2 2124.89,-45.8"/>
</g>
<!-- d6 -->
<g id="node16" class="node">
<title>d6</title>
<path fill="#f8fafc" stroke="#334155" d="M2443,-62C2443,-62 2327,-62 2327,-62 2321,-62 2315,-56 2315,-50 2315,-50 2315,-36 2315,-36 2315,-30 2321,-24 2327,-24 2327,-24 2443,-24 2443,-24 2449,-24 2455,-30 2455,-36 2455,-36 2455,-50 2455,-50 2455,-56 2449,-62 2443,-62"/>
<text text-anchor="middle" x="2385" y="-46.8" font-family="Arial" font-size="14.00">HRconv + Conv_last</text>
<text text-anchor="middle" x="2385" y="-31.8" font-family="Arial" font-size="14.00">(&#45;&gt; bands)</text>
</g>
<!-- d5&#45;&gt;d6 -->
<g id="edge10" class="edge">
<title>d5&#45;&gt;d6</title>
<path fill="none" stroke="#475569" d="M2279.25,-43C2288.34,-43 2297.67,-43 2306.84,-43"/>
<polygon fill="#475569" stroke="#475569" points="2306.84,-45.8 2314.84,-43 2306.84,-40.2 2306.84,-45.8"/>
</g>
<!-- d6&#45;&gt;XH -->
<g id="edge15" class="edge">
<title>d6&#45;&gt;XH</title>
<path fill="none" stroke="#475569" d="M2455.02,-43C2464.24,-43 2473.69,-43 2482.9,-43"/>
<polygon fill="#475569" stroke="#475569" points="2482.91,-45.8 2490.91,-43 2482.91,-40.2 2482.91,-45.8"/>
</g>
</g>
</svg>
